HIERARCHY
ROOT Hips
{
	OFFSET 0.000000 0.000000 0.000000
	CHANNELS 6 Xposition Yposition Zposition Zrotation Yrotation Xrotation 
	JOINT LHipJoint
	{
		OFFSET 0.000000 0.000000 0.000000
		CHANNELS 3 Zrotation Yrotation Xrotation
		JOINT LeftUpLeg
		{
			OFFSET 1.363060 -1.794630 0.839290
			CHANNELS 3 Zrotation Yrotation Xrotation
			JOINT LeftLeg
			{
				OFFSET 2.448110 -6.726130 0.000000
				CHANNELS 3 Zrotation Yrotation Xrotation
				JOINT LeftFoot
				{
					OFFSET 2.562200 -7.039590 0.000000
					CHANNELS 3 Zrotation Yrotation Xrotation
					JOINT LeftToeBase
					{
						OFFSET 0.157640 -0.433110 2.322550
						CHANNELS 3 Zrotation Yrotation Xrotation
						End Site
						{
							OFFSET 0.000000 0.000000 0.000000
						}
					}
				}
			}
		}
	}
	JOINT RHipJoint
	{
		OFFSET 0.000000 0.000000 0.000000
		CHANNELS 3 Zrotation Yrotation Xrotation
		JOINT RightUpLeg
		{
			OFFSET -1.305520 -1.794630 0.839290
			CHANNELS 3 Zrotation Yrotation Xrotation
			JOINT RightLeg
			{
				OFFSET -2.542530 -6.985550 0.000000
				CHANNELS 3 Zrotation Yrotation Xrotation
				JOINT RightFoot
				{
					OFFSET -2.568260 -7.056230 0.000000
					CHANNELS 3 Zrotation Yrotation Xrotation
					JOINT RightToeBase
					{
						OFFSET -0.164730 -0.452590 2.363150
						CHANNELS 3 Zrotation Yrotation Xrotation
						End Site
						{
							OFFSET 0.000000 0.000000 0.000000
						}
					}
				}
			}
		}
	}
	JOINT LowerBack
	{
		OFFSET 0.000000 0.000000 0.000000
		CHANNELS 3 Zrotation Yrotation Xrotation
		JOINT Spine
		{
			OFFSET 0.028270 2.035590 -0.193380
			CHANNELS 3 Zrotation Yrotation Xrotation
			JOINT Spine1
			{
				OFFSET 0.056720 2.048850 -0.042750
				CHANNELS 3 Zrotation Yrotation Xrotation
				JOINT Neck
				{
					OFFSET 0.000000 0.000000 0.000000
					CHANNELS 3 Zrotation Yrotation Xrotation
					JOINT Neck1
					{
						OFFSET -0.054170 1.746240 0.172020
						CHANNELS 3 Zrotation Yrotation Xrotation
						JOINT Head
						{
							OFFSET 0.104070 1.761360 -0.123970
							CHANNELS 3 Zrotation Yrotation Xrotation
							End Site
							{
								OFFSET 0.000000 0.000000 0.000000
							}
						}
					}
				}
				JOINT LeftShoulder
				{
					OFFSET 0.000000 0.000000 0.000000
					CHANNELS 3 Zrotation Yrotation Xrotation
					JOINT LeftArm
					{
						OFFSET 3.362410 1.200890 -0.311210
						CHANNELS 3 Zrotation Yrotation Xrotation
						JOINT LeftForeArm
						{
							OFFSET 4.983000 -0.000000 -0.000000
							CHANNELS 3 Zrotation Yrotation Xrotation
							JOINT LeftHand
							{
								OFFSET 3.483560 -0.000000 -0.000000
								CHANNELS 3 Zrotation Yrotation Xrotation
								JOINT LeftFingerBase
								{
									OFFSET 0.000000 0.000000 0.000000
									CHANNELS 3 Zrotation Yrotation Xrotation
									JOINT LeftHandIndex1
									{
										OFFSET 0.715260 -0.000000 -0.000000
										CHANNELS 3 Zrotation Yrotation Xrotation
										End Site
										{
											OFFSET 0.000000 0.000000 0.000000
										}
									}
								}
								JOINT LThumb
								{
									OFFSET 0.000000 0.000000 0.000000
									CHANNELS 3 Zrotation Yrotation Xrotation
									End Site
									{
										OFFSET 0.000000 0.000000 0.000000
									}
								}
							}
						}
					}
				}
				JOINT RightShoulder
				{
					OFFSET 0.000000 0.000000 0.000000
					CHANNELS 3 Zrotation Yrotation Xrotation
					JOINT RightArm
					{
						OFFSET -3.136600 1.374050 -0.404650
						CHANNELS 3 Zrotation Yrotation Xrotation
						JOINT RightForeArm
						{
							OFFSET -5.241900 -0.000000 -0.000000
							CHANNELS 3 Zrotation Yrotation Xrotation
							JOINT RightHand
							{
								OFFSET -3.444170 -0.000000 -0.000000
								CHANNELS 3 Zrotation Yrotation Xrotation
								JOINT RightFingerBase
								{
									OFFSET 0.000000 0.000000 0.000000
									CHANNELS 3 Zrotation Yrotation Xrotation
									JOINT RightHandIndex1
									{
										OFFSET -0.622530 -0.000000 -0.000000
										CHANNELS 3 Zrotation Yrotation Xrotation
										End Site
										{
											OFFSET 0.000000 0.000000 0.000000
										}
									}
								}
								JOINT RThumb
								{
									OFFSET 0.000000 0.000000 0.000000
									CHANNELS 3 Zrotation Yrotation Xrotation
									End Site
									{
										OFFSET 0.000000 0.000000 0.000000
									}
								}
							}
						}
					}
				}
			}
		}
	}
}
MOTION
Frames: 10
Frame Time: 0.008333
10.955552 17.961958 24.333943 -176.798790 16.322368 -176.504598 1.181513 3.360362 2.430166 -16.725529 -8.497285 -7.280512 -2.233554 8.082347 23.688353 -5.350511 17.813551 -11.108262 4.169800 -12.383100 -37.100900 -4.778775 -3.358668 0.436073 27.331468 19.537759 -1.604054 2.276441 -6.711436 21.216874 2.738448 -12.305397 -7.357133 -0.311500 3.587800 -9.919800 3.108202 0.357647 5.594952 5.379335 0.942402 3.177971 -5.046520 0.105499 -13.359185 -7.690932 -0.983684 -15.485088 13.730496 -1.182465 17.251823 2.370300 0.596600 5.563800 -2.056896 -10.048702 1.548191 -91.516804 5.112979 24.453286 27.480851 -27.683856 -7.846268 1.335628 0.755569 6.923708 4.728345 -36.391162 -2.136100 -7.125000 0.000000 0.000000 -16.075100 -6.170900 18.414300 0.190337 10.913460 2.974382 88.668681 -7.341700 26.882312 -27.027865 30.451383 -8.175688 0.801747 -0.246446 16.506613 3.234349 -49.755858 -1.824400 7.125000 0.000000 0.000000 65.824900 -69.349500 -44.507100 
10.957528 17.959982 24.338709 -176.726858 16.217299 -176.552134 1.185149 3.375473 2.445030 -16.618402 -8.562432 -7.268777 -2.224293 8.090023 23.709574 -5.376108 17.858997 -11.032345 4.225100 -12.454100 -37.358000 -4.786718 -3.364890 0.449082 27.465771 19.530197 -1.514214 2.286387 -6.690928 21.176337 2.759584 -12.397434 -7.442356 -0.292800 3.479400 -9.616600 3.237001 0.299557 5.635608 5.314078 0.869641 3.362264 -5.089547 0.066124 -13.388448 -7.559171 -0.932390 -15.423550 13.660418 -1.142679 16.940656 2.321400 0.586900 5.467100 -2.028180 -10.053622 1.535305 -91.365128 4.961929 23.966203 27.514075 -27.746064 -7.859599 1.347344 0.748589 7.026446 4.369206 -36.562623 -1.918200 -7.125000 0.000000 0.000000 -16.274400 -6.287500 18.691100 0.178535 10.885089 2.980688 88.625796 -7.318486 26.782953 -27.755700 31.278041 -8.656478 0.766644 -0.226114 15.435545 4.326336 -52.370447 -2.790900 7.125000 0.000000 0.000000 73.099100 -69.947700 -51.754700 
10.959736 17.961144 24.339290 -176.776111 16.200290 -176.590461 1.163378 3.383306 2.463479 -16.634570 -8.605663 -7.245101 -2.226917 8.086500 23.694966 -5.399056 17.917627 -11.001209 4.260900 -12.499800 -37.523700 -4.804527 -3.366265 0.458974 27.454095 19.484990 -1.537135 2.274197 -6.710106 21.240860 2.752458 -12.372286 -7.466986 -0.300900 3.527200 -9.750200 3.338167 0.287787 5.574580 5.036534 0.842920 3.585160 -5.090500 0.059331 -13.365627 -7.355504 -0.902970 -15.431974 13.602393 -1.136920 16.659871 2.268100 0.566900 5.394100 -1.983250 -10.071969 1.535506 -91.110718 4.840525 23.578228 27.619823 -27.875172 -7.904983 1.356222 0.738181 6.943263 3.892371 -36.589296 -1.620400 -7.125000 0.000000 0.000000 -16.525900 -6.244200 18.993400 0.190101 10.872201 2.947916 88.520659 -7.195326 26.227380 -27.667047 31.156471 -8.550478 0.778317 -0.238528 16.176911 3.704809 -50.985790 -2.242600 7.125000 0.000000 0.000000 69.170300 -69.678600 -47.847100 
10.960782 17.963469 24.344172 -176.879604 16.343868 -176.549433 1.135329 3.370259 2.466676 -16.710760 -8.567100 -7.320576 -2.233635 8.086664 23.674927 -5.419582 17.978481 -10.996941 4.232700 -12.463800 -37.393000 -4.814420 -3.353244 0.462901 27.319152 19.521829 -1.673290 2.264637 -6.727251 21.272222 2.716788 -12.221371 -7.339771 -0.315600 3.611200 -9.985200 3.345071 0.313319 5.485252 4.785814 0.859731 3.739266 -5.053122 0.077823 -13.316817 -7.175679 -0.889514 -15.532636 13.508656 -1.126693 16.548889 2.216900 0.560800 5.379800 -1.949978 -10.079428 1.534665 -90.879117 4.668264 23.227249 27.664027 -27.921317 -7.907882 1.339435 0.747637 6.874671 4.526248 -36.574139 -2.017600 -7.125000 0.000000 0.000000 -16.191500 -6.313100 18.594400 0.197116 10.871273 2.938638 88.382651 -7.012362 25.841076 -27.866874 31.374543 -8.664888 0.773012 -0.233288 15.834223 3.789757 -51.326110 -2.324900 7.125000 0.000000 0.000000 70.080700 -69.773600 -48.780800 
10.960782 17.963469 24.351263 -176.941937 16.451879 -176.531861 1.122765 3.364279 2.480744 -16.754260 -8.493167 -7.378254 -2.241586 8.075078 23.635850 -5.453670 18.068135 -10.993208 4.247800 -12.483000 -37.462900 -4.813371 -3.341771 0.475715 27.229387 19.611644 -1.801753 2.252567 -6.757704 21.332267 2.697526 -12.141032 -7.268951 -0.303800 3.543800 -9.796500 3.313046 0.294437 5.392874 4.712112 0.812933 3.972731 -5.010493 0.068846 -13.276918 -7.137936 -0.814435 -15.598976 13.488517 -1.036641 16.340512 2.205300 0.583700 5.332100 -1.932818 -10.104974 1.527639 -90.723053 4.388804 22.727073 27.587462 -27.843871 -7.850693 1.330762 0.761246 6.849792 5.122868 -36.718269 -2.397200 -7.125000 0.000000 0.000000 -15.888600 -6.538400 18.274400 0.194307 10.868828 2.915038 88.339236 -6.577201 25.141547 -28.140241 31.663879 -8.794299 0.767695 -0.230331 15.316168 2.503397 -51.132207 -1.319900 7.125000 0.000000 0.000000 68.703000 -70.128600 -47.981100 
10.961131 17.962539 24.355331 -176.968783 16.398306 -176.490099 1.147711 3.349400 2.449512 -16.792772 -8.493935 -7.380207 -2.252658 8.052960 23.567495 -5.489888 18.153336 -10.905064 4.303000 -12.553100 -37.717800 -4.783707 -3.335181 0.462906 27.170630 19.632384 -1.901692 2.244569 -6.792186 21.391766 2.718007 -12.219981 -7.278684 -0.294700 3.490800 -9.648300 3.013125 0.249316 5.704616 5.094704 0.755831 3.663018 -4.891326 0.053351 -13.454648 -7.371428 -0.714902 -15.513279 13.621507 -0.916389 16.247650 2.277900 0.631400 5.278400 -1.977632 -10.092902 1.545447 -90.797772 4.429408 22.145764 27.541585 -27.807976 -7.824466 1.337816 0.761799 6.970412 5.041235 -36.919783 -2.355000 -7.125000 0.000000 0.000000 -15.945100 -6.725200 18.390500 0.179349 10.856346 2.939881 88.119889 -6.650074 24.562409 -28.499911 31.988621 -8.896018 0.764529 -0.252711 15.306167 -0.435477 -48.859605 0.938800 7.125000 0.000000 0.000000 60.788600 -70.131800 -41.170800 
10.964386 17.966840 24.363816 -177.018310 16.842987 -176.296939 1.111167 3.315025 2.454136 -16.816190 -8.298354 -7.620309 -2.270285 8.040024 23.496477 -5.547570 18.304236 -10.959642 4.281300 -12.525700 -37.617900 -4.794497 -3.303738 0.473199 27.048560 19.926545 -2.140995 2.243844 -6.813914 21.387266 2.672787 -12.037342 -7.098054 -0.290100 3.463900 -9.573100 3.056795 0.357550 5.317458 4.865002 0.864437 3.955476 -4.900807 0.121168 -13.212098 -7.384126 -0.587651 -15.530202 13.792937 -0.793046 15.858199 2.319000 0.666200 5.180800 -1.937125 -10.158317 1.545047 -90.470747 4.096619 21.671784 27.563637 -27.830940 -7.809926 1.341258 0.758112 6.980849 5.091201 -36.794729 -2.376600 -7.125000 0.000000 0.000000 -15.913900 -6.608400 18.323100 0.187145 10.841566 2.904978 88.001603 -6.407390 24.121195 -28.736280 32.193095 -8.966817 0.760127 -0.268530 15.518556 -1.860603 -47.489611 1.968100 7.125000 0.000000 0.000000 56.328400 -69.900600 -37.282700 
10.965199 17.968583 24.363003 -177.040349 16.421507 -176.332204 1.146335 3.316815 2.398603 -16.844685 -8.628133 -7.427066 -2.291468 8.011907 23.414333 -5.552948 18.321745 -10.931397 4.332300 -12.589900 -37.852000 -4.758091 -3.313691 0.441698 27.040940 19.731144 -2.081982 2.245424 -6.817280 21.406924 2.710265 -12.200050 -7.306919 -0.276500 3.382200 -9.344800 2.769692 0.195676 6.026097 5.312272 0.693947 3.279770 -4.765766 0.031193 -13.622903 -7.434971 -0.622707 -15.492295 13.570341 -0.794992 16.132259 2.277100 0.670200 5.226500 -1.997194 -10.069808 1.573489 -90.552455 4.361517 21.248349 27.504645 -27.766177 -7.765964 1.331018 0.763876 6.989013 5.468754 -36.683131 -2.609500 -7.125000 0.000000 0.000000 -15.708000 -6.554700 18.054500 0.165696 10.841337 2.984231 87.637422 -6.882646 23.660648 -28.974055 32.440574 -9.094698 0.754955 -0.270296 15.514992 -1.355070 -47.484008 1.592300 7.125000 0.000000 0.000000 56.742200 -69.728300 -37.421300 
10.965780 17.971140 24.367187 -176.976520 16.822732 -176.110623 1.155513 3.280516 2.351304 -16.813343 -8.494136 -7.556731 -2.309805 7.999995 23.369229 -5.537465 18.297659 -11.148671 4.189900 -12.408900 -37.194300 -4.747659 -3.279966 0.395616 27.018883 19.993987 -2.239394 2.253133 -6.833852 21.379254 2.671491 -12.065835 -7.210498 -0.285000 3.433100 -9.487000 2.637355 0.300337 6.428760 5.560152 0.874975 2.714113 -4.759524 0.097019 -13.817285 -7.413491 -0.665392 -15.590793 13.445379 -0.813616 16.476362 2.253100 0.683200 5.320500 -2.040021 -10.004341 1.603978 -90.494609 4.483885 20.705016 27.435269 -27.705981 -7.727837 1.339798 0.765288 7.096360 5.380179 -36.927847 -2.565400 -7.125000 0.000000 0.000000 -15.772200 -6.782900 18.189600 0.145885 10.852779 3.062531 87.372848 -7.173089 23.361587 -29.465063 32.968310 -9.430068 0.743569 -0.249242 14.721629 -0.056290 -49.141102 0.639800 7.125000 0.000000 0.000000 61.765300 -70.126300 -41.979500 
10.966129 17.971954 24.367768 -176.979410 16.584604 -176.146848 1.154173 3.293067 2.355935 -16.776048 -8.676482 -7.457546 -2.321811 7.977956 23.316830 -5.467892 18.109160 -11.141788 4.092800 -12.282900 -36.740200 -4.744792 -3.285039 0.395410 27.048299 19.887566 -2.212214 2.255028 -6.831116 21.384204 2.694382 -12.162446 -7.328877 -0.256800 3.260400 -9.004500 2.713824 0.183747 6.578248 5.543014 0.735583 2.711375 -4.763824 0.022044 -13.920778 -7.410246 -0.653420 -15.719820 13.457851 -0.787215 16.586293 2.263700 0.705800 5.361200 -2.026737 -9.985535 1.604894 -90.361867 4.385746 20.182320 27.383743 -27.672126 -7.693002 1.365179 0.750861 7.152226 4.602772 -36.945214 -2.069900 -7.125000 0.000000 0.000000 -16.183900 -6.689500 18.679400 0.142374 10.848486 3.078525 87.155188 -7.252269 22.910105 -29.693826 33.205229 -9.573121 0.736705 -0.249919 14.654244 0.192122 -49.718960 0.451100 7.125000 0.000000 0.000000 63.384100 -70.302700 -43.553100 
